<svg xmlns="http://www.w3.org/2000/svg" viewBox="0 0 108 108" fill="none">
  <path fill-rule="evenodd" clip-rule="evenodd" d="M49.5156 18.0156C32.1187 18.0156 18.0156 32.1187 18.0156 49.5156C18.0156 66.9126 32.1187 81.0156 49.5156 81.0156C66.9126 81.0156 81.0156 66.9126 81.0156 49.5156C81.0156 32.1187 66.9126 18.0156 49.5156 18.0156ZM9.01562 49.5156C9.01562 27.1481 27.1481 9.01562 49.5156 9.01562C71.8832 9.01562 90.0156 27.1481 90.0156 49.5156C90.0156 71.8832 71.8832 90.0156 49.5156 90.0156C27.1481 90.0156 9.01562 71.8832 9.01562 49.5156Z" fill="#CFE1FF" stroke="#CFE1FF" stroke-width="0.801263" stroke-linecap="round" stroke-linejoin="round"/>
  <path fill-rule="evenodd" clip-rule="evenodd" d="M71.7399 71.7399C73.4973 69.9825 76.3465 69.9825 78.1039 71.7399L97.6789 91.3149C99.4362 93.0723 99.4362 95.9215 97.6789 97.6789C95.9215 99.4362 93.0723 99.4362 91.3149 97.6789L71.7399 78.1039C69.9825 76.3465 69.9825 73.4973 71.7399 71.7399Z" fill="#CFE1FF" stroke="#CFE1FF" stroke-width="0.801263" stroke-linecap="round" stroke-linejoin="round"/>
</svg>