<svg xmlns="http://www.w3.org/2000/svg" width="14" height="14" viewBox="0 0 14 14" fill="none">
<path fill-rule="evenodd" clip-rule="evenodd" d="M2.91797 4.08268C2.76326 4.08268 2.61489 4.14414 2.50549 4.25354C2.39609 4.36293 2.33464 4.51131 2.33464 4.66602V11.0827C2.33464 11.2374 2.39609 11.3858 2.50549 11.4952C2.61489 11.6046 2.76326 11.666 2.91797 11.666H9.33463C9.48934 11.666 9.63772 11.6046 9.74711 11.4952C9.85651 11.3858 9.91797 11.2374 9.91797 11.0827V7.58268C9.91797 7.26052 10.1791 6.99935 10.5013 6.99935C10.8235 6.99935 11.0846 7.26052 11.0846 7.58268V11.0827C11.0846 11.5468 10.9003 11.9919 10.5721 12.3201C10.2439 12.6483 9.79876 12.8327 9.33463 12.8327H2.91797C2.45384 12.8327 2.00872 12.6483 1.68053 12.3201C1.35234 11.9919 1.16797 11.5468 1.16797 11.0827V4.66602C1.16797 4.20189 1.35234 3.75677 1.68053 3.42858C2.00872 3.10039 2.45384 2.91602 2.91797 2.91602H6.41797C6.74013 2.91602 7.0013 3.17718 7.0013 3.49935C7.0013 3.82152 6.74013 4.08268 6.41797 4.08268H2.91797Z" fill="#405078"/>
<path fill-rule="evenodd" clip-rule="evenodd" d="M8.16797 1.74935C8.16797 1.42718 8.42914 1.16602 8.7513 1.16602H12.2513C12.5735 1.16602 12.8346 1.42718 12.8346 1.74935V5.24935C12.8346 5.57152 12.5735 5.83268 12.2513 5.83268C11.9291 5.83268 11.668 5.57152 11.668 5.24935V2.33268H8.7513C8.42914 2.33268 8.16797 2.07152 8.16797 1.74935Z" fill="#405078"/>
<path fill-rule="evenodd" clip-rule="evenodd" d="M12.6625 1.33687C12.8903 1.56468 12.8903 1.93402 12.6625 2.16183L6.24581 8.5785C6.01801 8.8063 5.64866 8.8063 5.42085 8.5785C5.19305 8.35069 5.19305 7.98134 5.42085 7.75354L11.8375 1.33687C12.0653 1.10906 12.4347 1.10906 12.6625 1.33687Z" fill="#405078"/>
</svg>