<svg xmlns="http://www.w3.org/2000/svg" width="18" height="18" viewBox="0 0 18 18" fill="none">
<path fill-rule="evenodd" clip-rule="evenodd" d="M2.69922 4.50156C2.69922 4.00451 3.10216 3.60156 3.59922 3.60156H14.3992C14.8963 3.60156 15.2992 4.00451 15.2992 4.50156C15.2992 4.99862 14.8963 5.40156 14.3992 5.40156H3.59922C3.10216 5.40156 2.69922 4.99862 2.69922 4.50156Z" fill="white"/>
<path fill-rule="evenodd" clip-rule="evenodd" d="M2.69922 9.00156C2.69922 8.50451 3.10216 8.10156 3.59922 8.10156H14.3992C14.8963 8.10156 15.2992 8.50451 15.2992 9.00156C15.2992 9.49862 14.8963 9.90156 14.3992 9.90156H3.59922C3.10216 9.90156 2.69922 9.49862 2.69922 9.00156Z" fill="white"/>
<path fill-rule="evenodd" clip-rule="evenodd" d="M2.69922 13.5016C2.69922 13.0045 3.10216 12.6016 3.59922 12.6016H14.3992C14.8963 12.6016 15.2992 13.0045 15.2992 13.5016C15.2992 13.9986 14.8963 14.4016 14.3992 14.4016H3.59922C3.10216 14.4016 2.69922 13.9986 2.69922 13.5016Z" fill="white"/>
</svg>