<svg xmlns="http://www.w3.org/2000/svg" width="18" height="18" viewBox="0 0 18 18" fill="none">
<path fill-rule="evenodd" clip-rule="evenodd" d="M2.69922 5.39922C2.69922 3.90805 3.90805 2.69922 5.39922 2.69922H14.3992C14.7401 2.69922 15.0517 2.89182 15.2042 3.19673C15.3567 3.50163 15.3238 3.8665 15.1192 4.13922L12.8242 7.19922L15.1192 10.2592C15.3238 10.5319 15.3567 10.8968 15.2042 11.2017C15.0517 11.5066 14.7401 11.6992 14.3992 11.6992H5.39922C4.90216 11.6992 4.49922 12.1022 4.49922 12.5992V15.2992C4.49922 15.7963 4.09627 16.1992 3.59922 16.1992C3.10216 16.1992 2.69922 15.7963 2.69922 15.2992V5.39922Z" fill="white"/>
</svg>