<svg xmlns="http://www.w3.org/2000/svg" width="18" height="18" viewBox="0 0 18 18" fill="none">
<path fill-rule="evenodd" clip-rule="evenodd" d="M9.44746 1.91936C9.17077 1.76125 8.8311 1.76125 8.55441 1.91936L2.25441 5.51936C1.82284 5.76597 1.67291 6.31574 1.91952 6.74731C2.08546 7.03771 2.38868 7.20059 2.70078 7.20093V13.5008C2.20372 13.5008 1.80078 13.9037 1.80078 14.4008C1.80078 14.8978 2.20372 15.3008 2.70078 15.3008H15.3008C15.7978 15.3008 16.2008 14.8978 16.2008 14.4008C16.2008 13.9037 15.7978 13.5008 15.3008 13.5008V7.20093C15.613 7.2007 15.9164 7.03781 16.0824 6.74731C16.329 6.31574 16.179 5.76597 15.7475 5.51936L9.44746 1.91936ZM5.40078 8.10078C4.90373 8.10078 4.50078 8.50372 4.50078 9.00078V11.7008C4.50078 12.1978 4.90373 12.6008 5.40078 12.6008C5.89784 12.6008 6.30078 12.1978 6.30078 11.7008V9.00078C6.30078 8.50372 5.89784 8.10078 5.40078 8.10078ZM8.10078 9.00078C8.10078 8.50372 8.50373 8.10078 9.00078 8.10078C9.49784 8.10078 9.90078 8.50372 9.90078 9.00078V11.7008C9.90078 12.1978 9.49784 12.6008 9.00078 12.6008C8.50373 12.6008 8.10078 12.1978 8.10078 11.7008V9.00078ZM12.6008 8.10078C12.1037 8.10078 11.7008 8.50372 11.7008 9.00078V11.7008C11.7008 12.1978 12.1037 12.6008 12.6008 12.6008C13.0978 12.6008 13.5008 12.1978 13.5008 11.7008V9.00078C13.5008 8.50372 13.0978 8.10078 12.6008 8.10078Z" fill="white"/>
</svg>