<svg xmlns="http://www.w3.org/2000/svg" width="18" height="18" viewBox="0 0 18 18" fill="none">
<path d="M8.10078 4.32537C7.1493 3.86171 6.08042 3.60156 4.95078 3.60156C3.82114 3.60156 2.75226 3.86171 1.80078 4.32537V13.3254C2.75226 12.8617 3.82114 12.6016 4.95078 12.6016C6.45252 12.6016 7.84688 13.0613 9.00078 13.8478C10.1547 13.0613 11.549 12.6016 13.0508 12.6016C14.1804 12.6016 15.2493 12.8617 16.2008 13.3254V4.32537C15.2493 3.86171 14.1804 3.60156 13.0508 3.60156C11.9211 3.60156 10.8523 3.86171 9.90078 4.32537V10.8016C9.90078 11.2986 9.49784 11.7016 9.00078 11.7016C8.50373 11.7016 8.10078 11.2986 8.10078 10.8016V4.32537Z" fill="white"/>
</svg>