<svg xmlns="http://www.w3.org/2000/svg" width="18" height="18" viewBox="0 0 18 18" fill="none">
<path fill-rule="evenodd" clip-rule="evenodd" d="M2.69922 4.49922C2.69922 3.50511 3.50511 2.69922 4.49922 2.69922H13.4992C14.4933 2.69922 15.2992 3.50511 15.2992 4.49922V11.6992C15.2992 12.6933 14.4933 13.4992 13.4992 13.4992H11.5019L11.6119 13.9391L12.3356 14.6628C12.593 14.9202 12.67 15.3073 12.5307 15.6436C12.3914 15.9799 12.0633 16.1992 11.6992 16.1992H6.29925C5.93523 16.1992 5.60706 15.9799 5.46775 15.6436C5.32845 15.3073 5.40545 14.9202 5.66285 14.6628L6.38658 13.9391L6.49654 13.4992H4.49922C3.50511 13.4992 2.69922 12.6933 2.69922 11.6992V4.49922ZM7.89339 10.7992C7.88014 10.7989 7.86692 10.7989 7.85375 10.7992H4.49922V4.49922H13.4992V10.7992H10.1447C10.1316 10.7989 10.1184 10.7989 10.1051 10.7992H7.89339Z" fill="white"/>
</svg>