<svg xmlns="http://www.w3.org/2000/svg" width="18" height="18" viewBox="0 0 18 18" fill="none">
<path d="M16.2008 2.70078C16.2008 2.38886 16.0393 2.09918 15.7739 1.9352C15.5086 1.77121 15.1773 1.7563 14.8983 1.8958L7.88832 5.40078H4.50078C3.00961 5.40078 1.80078 6.60961 1.80078 8.10078C1.80078 9.59195 3.00961 10.8008 4.50078 10.8008H4.7521L6.34697 15.5854C6.46948 15.9529 6.8134 16.2008 7.20079 16.2008H8.10079C8.59784 16.2008 9.00079 15.7978 9.00079 15.3008V11.357L14.8983 14.3058C15.1773 14.4453 15.5086 14.4304 15.7739 14.2664C16.0393 14.1024 16.2008 13.8127 16.2008 13.5008V2.70078Z" fill="white"/>
</svg>